<mxfile host="Electron" modified="2024-05-29T20:24:14.237Z" agent="Mozilla/5.0 (X11; Linux x86_64) AppleWebKit/537.36 (KHTML, like Gecko) draw.io/24.4.8 Chrome/124.0.6367.207 Electron/30.0.6 Safari/537.36" etag="0ix6yJsrqZ5_8XXyT__w" version="24.4.8" type="device">
  <diagram name="olo_axi_master_simple" id="sQZPAQ0m2a0brsjAJA3f">
    <mxGraphModel dx="1148" dy="703" grid="1" gridSize="10" guides="1" tooltips="1" connect="1" arrows="1" fold="1" page="1" pageScale="1" pageWidth="10000" pageHeight="10000" math="0" shadow="0">
      <root>
        <mxCell id="0" />
        <mxCell id="1" parent="0" />
        <mxCell id="L9xH7E7Yp6ftNxaXyzUH-43" value="" style="rounded=1;whiteSpace=wrap;html=1;fillColor=#f5f5f5;fontColor=#333333;strokeColor=#666666;arcSize=10;" vertex="1" parent="1">
          <mxGeometry x="540" y="339" width="260" height="241" as="geometry" />
        </mxCell>
        <mxCell id="MJSwwwkBB9a8yZKQljs4-28" value="olo_axi_master_simple" style="text;html=1;align=left;verticalAlign=middle;whiteSpace=wrap;rounded=0;" parent="1" vertex="1">
          <mxGeometry x="560" y="319" width="60" height="20" as="geometry" />
        </mxCell>
        <mxCell id="MJSwwwkBB9a8yZKQljs4-29" value="Write Data" style="text;html=1;align=right;verticalAlign=middle;whiteSpace=wrap;rounded=0;" parent="1" vertex="1">
          <mxGeometry x="460" y="369" width="60" height="20" as="geometry" />
        </mxCell>
        <mxCell id="L9xH7E7Yp6ftNxaXyzUH-1" style="vsdxID=5;fillColor=none;gradientColor=none;strokeColor=none;labelBackgroundColor=none;rounded=0;html=1;whiteSpace=wrap;" vertex="1" parent="1">
          <mxGeometry x="560" y="359" width="80" height="40" as="geometry" />
        </mxCell>
        <mxCell id="L9xH7E7Yp6ftNxaXyzUH-2" value="" style="verticalAlign=middle;align=center;vsdxID=6;fillColor=#dae8fc;shape=stencil(nZBLDoAgDERP0z3SIyjew0SURgSD+Lu9kMZoXLhwN9O+tukAlrNpJg1SzDH4QW/URgNYgZTkjA4UkwJUgGXng+6DX1zLfmoymdXo17xh5zmRJ6Q42BWCfc2oJfdAr+Yv+AP9Cb7OJ3H/2JG1HNGz/84klThPVCc=);strokeColor=#6c8ebf;spacingTop=-3;spacingBottom=-3;spacingLeft=-3;spacingRight=-3;labelBackgroundColor=none;rounded=0;html=1;whiteSpace=wrap;" vertex="1" parent="L9xH7E7Yp6ftNxaXyzUH-1">
          <mxGeometry x="20" width="60" height="40" as="geometry" />
        </mxCell>
        <mxCell id="L9xH7E7Yp6ftNxaXyzUH-3" style="vsdxID=8;fillColor=#FFFFFF;gradientColor=none;shape=stencil(UzV2Ls5ILEhVNTIoLinKz04tz0wpyVA1dlE1MsrMy0gtyiwBslSNXVWNndPyi1LTi/JL81Ig/IJEkEoQKze/DGRCBUSfAUiHkUElMs8NojAnMw9JoaEB2UphfKyK8SoFMhAOh/gZWQ7dk0AhSAAZuwIA);strokeColor=#000000;labelBackgroundColor=#ffffff;rounded=0;html=1;whiteSpace=wrap;" vertex="1" parent="L9xH7E7Yp6ftNxaXyzUH-1">
          <mxGeometry x="36" y="10" width="24" height="20" as="geometry" />
        </mxCell>
        <mxCell id="L9xH7E7Yp6ftNxaXyzUH-4" style="vsdxID=7;edgeStyle=none;startArrow=none;endArrow=classic;startSize=5;endSize=5;strokeColor=#000000;spacingTop=0;spacingBottom=0;spacingLeft=0;spacingRight=0;verticalAlign=middle;html=1;labelBackgroundColor=#ffffff;rounded=0;" edge="1" parent="L9xH7E7Yp6ftNxaXyzUH-1">
          <mxGeometry relative="1" as="geometry">
            <mxPoint as="offset" />
            <Array as="points" />
            <mxPoint x="24" y="20" as="sourcePoint" />
            <mxPoint x="40" y="20" as="targetPoint" />
          </mxGeometry>
        </mxCell>
        <mxCell id="L9xH7E7Yp6ftNxaXyzUH-5" style="vsdxID=9;edgeStyle=none;startArrow=none;endArrow=none;startSize=5;endSize=5;strokeColor=#000000;spacingTop=0;spacingBottom=0;spacingLeft=0;spacingRight=0;verticalAlign=middle;html=1;labelBackgroundColor=#ffffff;rounded=0;" edge="1" parent="L9xH7E7Yp6ftNxaXyzUH-1">
          <mxGeometry relative="1" as="geometry">
            <Array as="points" />
            <mxPoint x="52" y="10" as="sourcePoint" />
            <mxPoint x="52" y="30" as="targetPoint" />
          </mxGeometry>
        </mxCell>
        <mxCell id="L9xH7E7Yp6ftNxaXyzUH-6" style="vsdxID=10;edgeStyle=none;startArrow=none;endArrow=none;startSize=5;endSize=5;strokeColor=#000000;spacingTop=0;spacingBottom=0;spacingLeft=0;spacingRight=0;verticalAlign=middle;html=1;labelBackgroundColor=#ffffff;rounded=0;" edge="1" parent="L9xH7E7Yp6ftNxaXyzUH-1">
          <mxGeometry relative="1" as="geometry">
            <Array as="points" />
            <mxPoint x="44" y="10" as="sourcePoint" />
            <mxPoint x="44" y="30" as="targetPoint" />
          </mxGeometry>
        </mxCell>
        <mxCell id="L9xH7E7Yp6ftNxaXyzUH-7" style="vsdxID=11;edgeStyle=none;startArrow=none;endArrow=classic;startSize=5;endSize=5;strokeColor=#000000;spacingTop=0;spacingBottom=0;spacingLeft=0;spacingRight=0;verticalAlign=middle;html=1;labelBackgroundColor=#ffffff;rounded=0;" edge="1" parent="L9xH7E7Yp6ftNxaXyzUH-1">
          <mxGeometry relative="1" as="geometry">
            <mxPoint as="offset" />
            <Array as="points" />
            <mxPoint x="60" y="20" as="sourcePoint" />
            <mxPoint x="76" y="20" as="targetPoint" />
          </mxGeometry>
        </mxCell>
        <mxCell id="L9xH7E7Yp6ftNxaXyzUH-8" style="vsdxID=12;edgeStyle=none;startArrow=none;endArrow=none;startSize=5;endSize=5;strokeColor=#000000;spacingTop=0;spacingBottom=0;spacingLeft=0;spacingRight=0;verticalAlign=middle;html=1;labelBackgroundColor=#ffffff;rounded=0;" edge="1" parent="L9xH7E7Yp6ftNxaXyzUH-1">
          <mxGeometry relative="1" as="geometry">
            <Array as="points" />
            <mxPoint x="56" y="10" as="sourcePoint" />
            <mxPoint x="56" y="30" as="targetPoint" />
          </mxGeometry>
        </mxCell>
        <mxCell id="L9xH7E7Yp6ftNxaXyzUH-9" style="vsdxID=13;edgeStyle=none;startArrow=none;endArrow=none;startSize=5;endSize=5;strokeColor=#000000;spacingTop=0;spacingBottom=0;spacingLeft=0;spacingRight=0;verticalAlign=middle;html=1;labelBackgroundColor=#ffffff;rounded=0;" edge="1" parent="L9xH7E7Yp6ftNxaXyzUH-1">
          <mxGeometry relative="1" as="geometry">
            <Array as="points" />
            <mxPoint x="48" y="10" as="sourcePoint" />
            <mxPoint x="48" y="30" as="targetPoint" />
          </mxGeometry>
        </mxCell>
        <mxCell id="L9xH7E7Yp6ftNxaXyzUH-10" style="vsdxID=14;edgeStyle=none;startArrow=none;endArrow=classic;startSize=5;endSize=5;strokeColor=#000000;spacingTop=0;spacingBottom=0;spacingLeft=0;spacingRight=0;verticalAlign=middle;html=1;labelBackgroundColor=#ffffff;rounded=0;" edge="1" parent="L9xH7E7Yp6ftNxaXyzUH-1">
          <mxGeometry relative="1" as="geometry">
            <mxPoint as="offset" />
            <Array as="points" />
            <mxPoint y="20" as="sourcePoint" />
            <mxPoint x="20" y="20" as="targetPoint" />
          </mxGeometry>
        </mxCell>
        <mxCell id="L9xH7E7Yp6ftNxaXyzUH-11" value="Write Logic" style="verticalAlign=middle;align=center;vsdxID=5;fillColor=#e1eaff;gradientColor=none;shape=stencil(nZBLDoAgDERP0z3SIyjew0SURgSD+Lu9kMZoXLhwN9O+tukAlrNpJg1SzDH4QW/URgNYgZTkjA4UkwJUgGXng+6DX1zLfmoymdXo17xh5zmRJ6Q42BWCfc2oJfdAr+Yv+AP9Cb7OJ3H/2JG1HNGz/84klThPVCc=);strokeColor=#000000;labelBackgroundColor=none;rounded=0;html=1;whiteSpace=wrap;" vertex="1" parent="1">
          <mxGeometry x="680" y="359" width="80" height="91" as="geometry" />
        </mxCell>
        <mxCell id="L9xH7E7Yp6ftNxaXyzUH-12" value="" style="endArrow=classic;html=1;rounded=0;endFill=1;" edge="1" parent="1">
          <mxGeometry width="50" height="50" relative="1" as="geometry">
            <mxPoint x="640" y="378.86" as="sourcePoint" />
            <mxPoint x="680" y="379" as="targetPoint" />
          </mxGeometry>
        </mxCell>
        <mxCell id="L9xH7E7Yp6ftNxaXyzUH-13" value="" style="endArrow=none;html=1;rounded=0;" edge="1" parent="1">
          <mxGeometry width="50" height="50" relative="1" as="geometry">
            <mxPoint x="520" y="379" as="sourcePoint" />
            <mxPoint x="560" y="379" as="targetPoint" />
          </mxGeometry>
        </mxCell>
        <mxCell id="L9xH7E7Yp6ftNxaXyzUH-14" value="" style="endArrow=classic;html=1;rounded=0;endFill=1;" edge="1" parent="1">
          <mxGeometry width="50" height="50" relative="1" as="geometry">
            <mxPoint x="520" y="410" as="sourcePoint" />
            <mxPoint x="680" y="410" as="targetPoint" />
          </mxGeometry>
        </mxCell>
        <mxCell id="L9xH7E7Yp6ftNxaXyzUH-15" value="Write Command" style="text;html=1;align=right;verticalAlign=middle;whiteSpace=wrap;rounded=0;" vertex="1" parent="1">
          <mxGeometry x="420" y="399" width="100" height="20" as="geometry" />
        </mxCell>
        <mxCell id="L9xH7E7Yp6ftNxaXyzUH-16" value="" style="endArrow=none;html=1;rounded=0;endFill=0;startArrow=classic;startFill=1;" edge="1" parent="1">
          <mxGeometry width="50" height="50" relative="1" as="geometry">
            <mxPoint x="520" y="430" as="sourcePoint" />
            <mxPoint x="680" y="430" as="targetPoint" />
          </mxGeometry>
        </mxCell>
        <mxCell id="L9xH7E7Yp6ftNxaXyzUH-17" value="Write Response" style="text;html=1;align=right;verticalAlign=middle;whiteSpace=wrap;rounded=0;" vertex="1" parent="1">
          <mxGeometry x="420" y="419" width="100" height="20" as="geometry" />
        </mxCell>
        <mxCell id="L9xH7E7Yp6ftNxaXyzUH-18" value="Read Data" style="text;html=1;align=right;verticalAlign=middle;whiteSpace=wrap;rounded=0;" vertex="1" parent="1">
          <mxGeometry x="460" y="480" width="60" height="20" as="geometry" />
        </mxCell>
        <mxCell id="L9xH7E7Yp6ftNxaXyzUH-29" value="Read Logic" style="verticalAlign=middle;align=center;vsdxID=5;fillColor=#f8cecc;shape=stencil(nZBLDoAgDERP0z3SIyjew0SURgSD+Lu9kMZoXLhwN9O+tukAlrNpJg1SzDH4QW/URgNYgZTkjA4UkwJUgGXng+6DX1zLfmoymdXo17xh5zmRJ6Q42BWCfc2oJfdAr+Yv+AP9Cb7OJ3H/2JG1HNGz/84klThPVCc=);strokeColor=#b85450;labelBackgroundColor=none;rounded=0;html=1;whiteSpace=wrap;" vertex="1" parent="1">
          <mxGeometry x="680" y="470" width="80" height="91" as="geometry" />
        </mxCell>
        <mxCell id="L9xH7E7Yp6ftNxaXyzUH-32" value="" style="endArrow=classic;html=1;rounded=0;endFill=1;" edge="1" parent="1">
          <mxGeometry width="50" height="50" relative="1" as="geometry">
            <mxPoint x="520" y="521" as="sourcePoint" />
            <mxPoint x="680" y="521" as="targetPoint" />
          </mxGeometry>
        </mxCell>
        <mxCell id="L9xH7E7Yp6ftNxaXyzUH-33" value="Read Command" style="text;html=1;align=right;verticalAlign=middle;whiteSpace=wrap;rounded=0;" vertex="1" parent="1">
          <mxGeometry x="420" y="510" width="100" height="20" as="geometry" />
        </mxCell>
        <mxCell id="L9xH7E7Yp6ftNxaXyzUH-34" value="" style="endArrow=none;html=1;rounded=0;endFill=0;startArrow=classic;startFill=1;" edge="1" parent="1">
          <mxGeometry width="50" height="50" relative="1" as="geometry">
            <mxPoint x="520" y="541" as="sourcePoint" />
            <mxPoint x="680" y="541" as="targetPoint" />
          </mxGeometry>
        </mxCell>
        <mxCell id="L9xH7E7Yp6ftNxaXyzUH-35" value="Read Response" style="text;html=1;align=right;verticalAlign=middle;whiteSpace=wrap;rounded=0;" vertex="1" parent="1">
          <mxGeometry x="420" y="530" width="100" height="20" as="geometry" />
        </mxCell>
        <mxCell id="L9xH7E7Yp6ftNxaXyzUH-19" style="vsdxID=5;fillColor=none;gradientColor=none;strokeColor=none;labelBackgroundColor=none;rounded=0;html=1;whiteSpace=wrap;rotation=-180;" vertex="1" parent="1">
          <mxGeometry x="560" y="470" width="80" height="40" as="geometry" />
        </mxCell>
        <mxCell id="L9xH7E7Yp6ftNxaXyzUH-20" value="" style="verticalAlign=middle;align=center;vsdxID=6;fillColor=#f8cecc;shape=stencil(nZBLDoAgDERP0z3SIyjew0SURgSD+Lu9kMZoXLhwN9O+tukAlrNpJg1SzDH4QW/URgNYgZTkjA4UkwJUgGXng+6DX1zLfmoymdXo17xh5zmRJ6Q42BWCfc2oJfdAr+Yv+AP9Cb7OJ3H/2JG1HNGz/84klThPVCc=);strokeColor=#b85450;spacingTop=-3;spacingBottom=-3;spacingLeft=-3;spacingRight=-3;labelBackgroundColor=none;rounded=0;html=1;whiteSpace=wrap;rotation=-180;" vertex="1" parent="L9xH7E7Yp6ftNxaXyzUH-19">
          <mxGeometry width="60" height="40" as="geometry" />
        </mxCell>
        <mxCell id="L9xH7E7Yp6ftNxaXyzUH-21" style="vsdxID=8;fillColor=#FFFFFF;gradientColor=none;shape=stencil(UzV2Ls5ILEhVNTIoLinKz04tz0wpyVA1dlE1MsrMy0gtyiwBslSNXVWNndPyi1LTi/JL81Ig/IJEkEoQKze/DGRCBUSfAUiHkUElMs8NojAnMw9JoaEB2UphfKyK8SoFMhAOh/gZWQ7dk0AhSAAZuwIA);strokeColor=#000000;labelBackgroundColor=#ffffff;rounded=0;html=1;whiteSpace=wrap;rotation=-180;" vertex="1" parent="L9xH7E7Yp6ftNxaXyzUH-19">
          <mxGeometry x="20" y="10" width="24" height="20" as="geometry" />
        </mxCell>
        <mxCell id="L9xH7E7Yp6ftNxaXyzUH-22" style="vsdxID=7;edgeStyle=none;startArrow=none;endArrow=classic;startSize=5;endSize=5;strokeColor=#000000;spacingTop=0;spacingBottom=0;spacingLeft=0;spacingRight=0;verticalAlign=middle;html=1;labelBackgroundColor=#ffffff;rounded=0;" edge="1" parent="L9xH7E7Yp6ftNxaXyzUH-19">
          <mxGeometry relative="1" as="geometry">
            <mxPoint as="offset" />
            <Array as="points" />
            <mxPoint x="56" y="20" as="sourcePoint" />
            <mxPoint x="40" y="20" as="targetPoint" />
          </mxGeometry>
        </mxCell>
        <mxCell id="L9xH7E7Yp6ftNxaXyzUH-23" style="vsdxID=9;edgeStyle=none;startArrow=none;endArrow=none;startSize=5;endSize=5;strokeColor=#000000;spacingTop=0;spacingBottom=0;spacingLeft=0;spacingRight=0;verticalAlign=middle;html=1;labelBackgroundColor=#ffffff;rounded=0;" edge="1" parent="L9xH7E7Yp6ftNxaXyzUH-19">
          <mxGeometry relative="1" as="geometry">
            <Array as="points" />
            <mxPoint x="28" y="30" as="sourcePoint" />
            <mxPoint x="28" y="10" as="targetPoint" />
          </mxGeometry>
        </mxCell>
        <mxCell id="L9xH7E7Yp6ftNxaXyzUH-24" style="vsdxID=10;edgeStyle=none;startArrow=none;endArrow=none;startSize=5;endSize=5;strokeColor=#000000;spacingTop=0;spacingBottom=0;spacingLeft=0;spacingRight=0;verticalAlign=middle;html=1;labelBackgroundColor=#ffffff;rounded=0;" edge="1" parent="L9xH7E7Yp6ftNxaXyzUH-19">
          <mxGeometry relative="1" as="geometry">
            <Array as="points" />
            <mxPoint x="36" y="30" as="sourcePoint" />
            <mxPoint x="36" y="10" as="targetPoint" />
          </mxGeometry>
        </mxCell>
        <mxCell id="L9xH7E7Yp6ftNxaXyzUH-25" style="vsdxID=11;edgeStyle=none;startArrow=none;endArrow=classic;startSize=5;endSize=5;strokeColor=#000000;spacingTop=0;spacingBottom=0;spacingLeft=0;spacingRight=0;verticalAlign=middle;html=1;labelBackgroundColor=#ffffff;rounded=0;" edge="1" parent="L9xH7E7Yp6ftNxaXyzUH-19">
          <mxGeometry relative="1" as="geometry">
            <mxPoint as="offset" />
            <Array as="points" />
            <mxPoint x="20" y="20" as="sourcePoint" />
            <mxPoint x="4" y="20" as="targetPoint" />
          </mxGeometry>
        </mxCell>
        <mxCell id="L9xH7E7Yp6ftNxaXyzUH-26" style="vsdxID=12;edgeStyle=none;startArrow=none;endArrow=none;startSize=5;endSize=5;strokeColor=#000000;spacingTop=0;spacingBottom=0;spacingLeft=0;spacingRight=0;verticalAlign=middle;html=1;labelBackgroundColor=#ffffff;rounded=0;" edge="1" parent="L9xH7E7Yp6ftNxaXyzUH-19">
          <mxGeometry relative="1" as="geometry">
            <Array as="points" />
            <mxPoint x="24" y="30" as="sourcePoint" />
            <mxPoint x="24" y="10" as="targetPoint" />
          </mxGeometry>
        </mxCell>
        <mxCell id="L9xH7E7Yp6ftNxaXyzUH-27" style="vsdxID=13;edgeStyle=none;startArrow=none;endArrow=none;startSize=5;endSize=5;strokeColor=#000000;spacingTop=0;spacingBottom=0;spacingLeft=0;spacingRight=0;verticalAlign=middle;html=1;labelBackgroundColor=#ffffff;rounded=0;" edge="1" parent="L9xH7E7Yp6ftNxaXyzUH-19">
          <mxGeometry relative="1" as="geometry">
            <Array as="points" />
            <mxPoint x="32" y="30" as="sourcePoint" />
            <mxPoint x="32" y="10" as="targetPoint" />
          </mxGeometry>
        </mxCell>
        <mxCell id="L9xH7E7Yp6ftNxaXyzUH-28" style="vsdxID=14;edgeStyle=none;startArrow=none;endArrow=classic;startSize=5;endSize=5;strokeColor=#000000;spacingTop=0;spacingBottom=0;spacingLeft=0;spacingRight=0;verticalAlign=middle;html=1;labelBackgroundColor=#ffffff;rounded=0;" edge="1" parent="L9xH7E7Yp6ftNxaXyzUH-19">
          <mxGeometry relative="1" as="geometry">
            <mxPoint as="offset" />
            <Array as="points" />
            <mxPoint x="80" y="20" as="sourcePoint" />
            <mxPoint x="60" y="20" as="targetPoint" />
          </mxGeometry>
        </mxCell>
        <mxCell id="L9xH7E7Yp6ftNxaXyzUH-30" value="" style="endArrow=classic;html=1;rounded=0;endFill=1;" edge="1" parent="1">
          <mxGeometry width="50" height="50" relative="1" as="geometry">
            <mxPoint x="560" y="490" as="sourcePoint" />
            <mxPoint x="520" y="490" as="targetPoint" />
          </mxGeometry>
        </mxCell>
        <mxCell id="L9xH7E7Yp6ftNxaXyzUH-31" value="" style="endArrow=none;html=1;rounded=0;" edge="1" parent="1">
          <mxGeometry width="50" height="50" relative="1" as="geometry">
            <mxPoint x="680" y="490" as="sourcePoint" />
            <mxPoint x="640" y="490" as="targetPoint" />
          </mxGeometry>
        </mxCell>
        <mxCell id="L9xH7E7Yp6ftNxaXyzUH-38" value="" style="endArrow=classic;html=1;rounded=0;" edge="1" parent="1">
          <mxGeometry width="50" height="50" relative="1" as="geometry">
            <mxPoint x="780" y="400" as="sourcePoint" />
            <mxPoint x="760" y="400" as="targetPoint" />
          </mxGeometry>
        </mxCell>
        <mxCell id="L9xH7E7Yp6ftNxaXyzUH-39" value="" style="endArrow=classic;html=1;rounded=0;" edge="1" parent="1">
          <mxGeometry width="50" height="50" relative="1" as="geometry">
            <mxPoint x="780" y="519.86" as="sourcePoint" />
            <mxPoint x="760" y="519.86" as="targetPoint" />
          </mxGeometry>
        </mxCell>
        <mxCell id="L9xH7E7Yp6ftNxaXyzUH-40" value="" style="endArrow=none;html=1;rounded=0;" edge="1" parent="1">
          <mxGeometry width="50" height="50" relative="1" as="geometry">
            <mxPoint x="780" y="520" as="sourcePoint" />
            <mxPoint x="780" y="400" as="targetPoint" />
          </mxGeometry>
        </mxCell>
        <mxCell id="L9xH7E7Yp6ftNxaXyzUH-41" value="" style="endArrow=classic;html=1;rounded=0;" edge="1" parent="1">
          <mxGeometry width="50" height="50" relative="1" as="geometry">
            <mxPoint x="780" y="460" as="sourcePoint" />
            <mxPoint x="820" y="460" as="targetPoint" />
          </mxGeometry>
        </mxCell>
        <mxCell id="L9xH7E7Yp6ftNxaXyzUH-42" value="AXI4" style="text;html=1;align=left;verticalAlign=middle;whiteSpace=wrap;rounded=0;" vertex="1" parent="1">
          <mxGeometry x="820" y="450" width="40" height="20" as="geometry" />
        </mxCell>
      </root>
    </mxGraphModel>
  </diagram>
</mxfile>
